Coordinates
version=1
nRows=16
nColumns=36
inDegrees=yes

Units are S.I. units (second, meters, Newtons, ...)
If the header above contains a line with 'inDegrees', this indicates whether rotational values are in degrees (yes) or radians (no).

endheader
time	pelvis_tilt	pelvis_list	pelvis_rotation	pelvis_tx	pelvis_ty	pelvis_tz	hip_flexion_r	hip_adduction_r	hip_rotation_r	knee_angle_r	knee_angle_r_beta	ankle_angle_r	subtalar_angle_r	mtp_angle_r	hip_flexion_l	hip_adduction_l	hip_rotation_l	knee_angle_l	knee_angle_l_beta	ankle_angle_l	subtalar_angle_l	mtp_angle_l	lumbar_extension	lumbar_bending	lumbar_rotation	arm_flex_r	arm_add_r	arm_rot_r	elbow_flex_r	pro_sup_r	arm_flex_l	arm_add_l	arm_rot_l	elbow_flex_l	pro_sup_l
      1.43750000	    -17.46630544	      1.27296232	      4.16934695	     -0.93132001	      1.27111189	     -0.09352233	     20.72061947	     -3.15601547	     -1.45603773	      9.33811450	      0.16298084	      3.34362801	     -7.08717457	     -7.49999987	     21.16460719	      1.48395309	      0.91197384	      8.19866702	      0.14309373	      3.09313738	      0.49105108	     -7.49999987	     -8.34848478	     -0.51979518	     -1.48533329	     53.86357889	      4.87733405	     15.25568528	     42.45506427	     60.10451131	     63.04154114	      8.45499445	     35.79566071	     28.17717257	     55.03779620
      1.44166670	    -17.76639864	      1.21221746	      4.11075507	     -0.93322383	      1.26840835	     -0.09266936	     21.29030015	     -3.11878844	     -1.30363121	      9.53935265	      0.16649311	      3.34875367	     -7.53098472	     -7.49999987	     21.90533074	      1.46678975	      1.00772013	      8.68570691	      0.15159418	      3.15656375	      0.07254049	     -7.49999987	     -8.59246186	     -0.43319735	     -1.44730360	     54.03533088	      4.85727800	     15.39131165	     42.23470595	     60.03356117	     63.09609766	      8.55691559	     35.47031568	     28.17986170	     54.88283297
      1.44583330	    -18.08897744	      1.18657732	      4.02317806	     -0.93431575	      1.26818005	     -0.09350603	     21.87135872	     -3.14730531	     -1.22803172	      9.85475957	      0.17199800	      3.47775036	     -7.47485152	     -7.49999987	     22.54758995	      1.47335841	      1.07580661	      9.06436214	      0.15820296	      3.19099558	      0.05662411	     -7.49999987	     -8.83628243	     -0.32932340	     -1.41149006	     54.02708964	      4.67286749	     15.33981995	     42.57616805	     60.00906120	     62.85662131	      8.46563818	     35.38040666	     28.64910426	     54.93304717
      1.45000000	    -18.60305027	      1.16187676	      3.95943269	     -0.93620227	      1.26995390	     -0.09346680	     22.75120245	     -3.14847915	     -1.09288117	     10.29795597	      0.17973324	      3.37995087	     -7.76752386	     -7.49999987	     23.50112313	      1.50438747	      1.15735951	      9.63355231	      0.16813721	      3.08774019	     -0.44511134	     -7.49999987	     -8.85255796	     -0.30997861	     -1.36571493	     54.06359373	      4.72082253	     15.20281090	     41.87617580	     59.84500970	     62.59613674	      8.64540820	     34.40923518	     28.43747885	     54.86400020
      1.45416670	    -18.89416703	      1.21967001	      3.95829764	     -0.93463564	      1.27072893	     -0.09141435	     23.26796487	     -3.18989565	     -1.13581028	     10.61494565	      0.18526575	      3.48554755	     -7.61963243	     -7.49999987	     24.04465817	      1.51524374	      1.14280464	     10.07177362	      0.17578561	      2.85059709	     -0.84372944	     -7.49999987	     -9.12400191	     -0.40798233	     -1.21342927	     53.86442036	      4.52706336	     14.99995553	     41.71669514	     59.72507222	     62.09968668	      8.73128292	     33.75783466	     28.80956749	     55.09026046
      1.45833330	    -19.22943323	      1.18021972	      3.93862276	     -0.93570485	      1.26851275	     -0.09255259	     23.81424980	     -3.16509736	     -1.15941741	     10.97093745	      0.19147898	      3.88224440	     -7.44258280	     -7.49999987	     24.68416238	      1.46005286	      1.14227729	     10.51864721	      0.18358503	      3.01981088	     -0.84402711	     -7.49999987	     -9.27860306	     -0.34502586	     -1.15771372	     53.30578962	      4.34813035	     15.01032722	     42.16611069	     59.71133306	     61.52753676	      8.58387850	     33.70236318	     29.58246455	     55.21533848
      1.46250000	    -19.26100994	      1.19011823	      3.99203367	     -0.93446265	      1.26963524	     -0.09050040	     23.90098157	     -3.12980698	     -1.08051992	     11.05533995	      0.19295208	      3.85051393	     -7.68208464	     -7.49999987	     24.82355061	      1.40902919	      1.28260879	     10.79382853	      0.18838785	      2.76139695	     -1.32386769	     -7.49999987	     -9.73986823	     -0.38237552	     -0.95920977	     53.14064911	      4.23617847	     14.98775736	     41.24589856	     59.62844929	     61.15061547	      8.80199098	     33.27097945	     29.27689849	     55.16368298
      1.46666670	    -19.37455514	      1.12762354	      4.03177356	     -0.93788861	      1.26047488	     -0.09229509	     24.33521094	     -3.08036649	     -1.09534774	     11.61635234	      0.20274360	      4.50472259	     -7.94642674	     -7.49999987	     25.36505929	      1.39780445	      1.42820531	     11.41492722	      0.19922806	      3.39123571	     -1.55024655	     -7.49999987	    -10.05866181	     -0.28989639	     -0.99827386	     53.06194987	      4.16781498	     15.04993390	     41.39274166	     59.61855085	     61.01069541	      8.73546044	     33.22303614	     29.58573144	     55.14513885
      1.47083330	    -19.91525591	      1.05353600	      4.20741871	     -0.93953979	      1.26196070	     -0.09290008	     25.24585823	     -3.11921821	     -1.08486236	     12.13382974	      0.21177528	      4.63902333	     -8.36189248	     -7.49999987	     26.37252202	      1.49409587	      1.73696845	     12.03003059	      0.20996364	      3.57457796	     -1.86398810	     -7.49999987	     -9.92374600	     -0.11173657	     -1.19426218	     52.96173372	      4.16234069	     15.36018906	     40.93133445	     59.56847085	     60.75351906	      8.74819186	     32.81549088	     29.45970964	     54.98596825
      1.47500000	    -20.40949919	      0.97450181	      4.37298052	     -0.93862161	      1.25938280	     -0.09130892	     26.07183800	     -3.14568849	     -1.07158105	     12.68997875	      0.22148191	      5.24152107	     -8.45783600	     -7.49999987	     27.26710778	      1.52015808	      1.79705889	     12.55714243	      0.21916348	      3.95230376	     -1.96416825	     -7.49999987	     -9.79600217	     -0.04574448	     -1.22559986	     52.11800392	      3.78562953	     15.35182242	     42.23325410	     59.56438342	     60.05661967	      8.43940323	     32.59540084	     30.91303988	     55.32104471
      1.47916670	    -20.32102235	      0.96407240	      4.58142117	     -0.93899113	      1.26319216	     -0.09204384	     26.23595677	     -3.21755617	     -1.06974563	     13.07704357	      0.22823747	      5.31159633	     -8.83641114	     -7.49999987	     27.46943542	      1.62847784	      2.10353114	     12.98689468	      0.22666407	      3.95789292	     -2.40813194	     -7.49999987	    -10.40983683	      0.04382658	     -1.56656452	     52.21394959	      3.95766687	     15.75429845	     40.99120918	     59.50974647	     60.13649737	      8.54478304	     32.21019532	     29.75092158	     55.12952459
      1.48333330	    -20.62025337	      0.91656449	      4.70056243	     -0.94289840	      1.25732504	     -0.09266407	     27.02359574	     -3.26496893	     -1.00986311	     13.83312090	      0.24143351	      5.79976155	     -9.11414669	     -7.49999987	     28.28059529	      1.71741831	      2.37131663	     13.71684054	      0.23940403	      4.33692658	     -2.74308585	     -7.49999987	    -10.63293143	      0.15252102	     -1.79263248	     52.22197403	      3.80750562	     16.58241907	     40.79966009	     59.40506641	     60.14808017	      8.38496828	     32.20483098	     29.72900649	     54.74999422
      1.48750000	    -21.07968746	      0.92018531	      4.62781352	     -0.94410054	      1.25416670	     -0.09355931	     28.04529215	     -3.29986449	     -0.57010922	     14.67915557	      0.25619960	      6.06933017	     -9.75741495	     -7.49999987	     29.18063030	      1.78656783	      2.70581745	     14.33607370	      0.25021169	      4.81628244	     -2.78917785	     -7.49999987	    -10.75115877	      0.18426130	     -1.87516642	     52.11445212	      3.78373911	     16.68398650	     40.84428618	     59.30575461	     60.08852742	      8.33816769	     31.93109884	     29.77314863	     54.76397015
      1.49166670	    -21.42467694	      0.96571737	      4.63486070	     -0.94450635	      1.25348438	     -0.09585056	     28.72777915	     -3.43168886	     -0.18255008	     15.24766193	      0.26612190	      6.50971469	    -10.03664950	     -7.49999987	     29.84817370	      1.98141627	      3.04962681	     14.86971370	      0.25952546	      5.24264561	     -3.18873610	     -7.49999987	    -10.81289673	      0.32060659	     -1.98460263	     51.94090461	      3.60788548	     16.92644937	     40.58684185	     59.25943958	     59.87631473	      8.37531551	     31.80176898	     29.30623615	     54.66214237
      1.49583330	    -21.86624529	      0.91080327	      4.66028840	     -0.94815420	      1.25155606	     -0.09359749	     29.58757915	     -3.39372963	      0.14366386	     15.76644230	      0.27517633	      6.96498840	    -10.34854095	     -7.49999987	     30.81098500	      2.02883163	      3.48258348	     15.57370657	      0.27181246	      5.64398318	     -3.48242848	     -7.49999987	    -10.91879428	      0.42357674	     -2.03831601	     51.88618827	      3.45101199	     17.13469303	     40.29972396	     59.22864889	     59.85300771	      8.31357345	     31.63602983	     29.03975101	     54.53016663
      1.50000000	    -22.37611081	      0.88522494	      4.72419891	     -0.94874368	      1.24795254	     -0.09142257	     30.59615006	     -3.32084301	      0.47533454	     16.53853391	      0.28865187	      7.40907372	    -10.76593296	     -7.49999987	     31.82308836	      2.03210964	      3.82052326	     16.38542037	      0.28597953	      6.13869623	     -3.86713621	     -7.49999987	    -10.89046384	      0.40647448	     -2.07546975	     51.58001312	      3.29152244	     17.07329032	     40.25905924	     59.21640445	     59.53731845	      8.15333430	     31.21497394	     29.26576702	     54.62672535
